<mxfile host="app.diagrams.net" modified="2021-07-04T09:03:10.433Z" agent="5.0 (Macintosh; Intel Mac OS X 10_15_7) AppleWebKit/605.1.15 (KHTML, like Gecko) Version/14.1.1 Safari/605.1.15" etag="c0xRFAQ-kujlJHTcs9mp" version="14.8.4" type="github">
  <diagram id="s4i10_M4SEwK_w-bxr3x" name="Page-1">
    <mxGraphModel dx="865" dy="577" grid="1" gridSize="10" guides="1" tooltips="1" connect="1" arrows="1" fold="1" page="1" pageScale="1" pageWidth="827" pageHeight="1169" math="0" shadow="0">
      <root>
        <mxCell id="0" />
        <mxCell id="1" parent="0" />
        <mxCell id="kOpIBNxoIXO7Sk8ZDuLD-32" style="edgeStyle=orthogonalEdgeStyle;rounded=0;orthogonalLoop=1;jettySize=auto;html=1;" edge="1" parent="1" source="kOpIBNxoIXO7Sk8ZDuLD-19" target="kOpIBNxoIXO7Sk8ZDuLD-33">
          <mxGeometry relative="1" as="geometry">
            <mxPoint x="470" y="220" as="targetPoint" />
          </mxGeometry>
        </mxCell>
        <mxCell id="kOpIBNxoIXO7Sk8ZDuLD-19" value="Employee" style="shape=table;startSize=30;container=1;collapsible=1;childLayout=tableLayout;fixedRows=1;rowLines=0;fontStyle=1;align=center;resizeLast=1;" vertex="1" parent="1">
          <mxGeometry x="70" y="140" width="180" height="160" as="geometry" />
        </mxCell>
        <mxCell id="kOpIBNxoIXO7Sk8ZDuLD-20" value="" style="shape=partialRectangle;collapsible=0;dropTarget=0;pointerEvents=0;fillColor=none;top=0;left=0;bottom=1;right=0;points=[[0,0.5],[1,0.5]];portConstraint=eastwest;" vertex="1" parent="kOpIBNxoIXO7Sk8ZDuLD-19">
          <mxGeometry y="30" width="180" height="30" as="geometry" />
        </mxCell>
        <mxCell id="kOpIBNxoIXO7Sk8ZDuLD-21" value="PK" style="shape=partialRectangle;connectable=0;fillColor=none;top=0;left=0;bottom=0;right=0;fontStyle=1;overflow=hidden;" vertex="1" parent="kOpIBNxoIXO7Sk8ZDuLD-20">
          <mxGeometry width="30" height="30" as="geometry" />
        </mxCell>
        <mxCell id="kOpIBNxoIXO7Sk8ZDuLD-22" value="UniqueID" style="shape=partialRectangle;connectable=0;fillColor=none;top=0;left=0;bottom=0;right=0;align=left;spacingLeft=6;fontStyle=5;overflow=hidden;" vertex="1" parent="kOpIBNxoIXO7Sk8ZDuLD-20">
          <mxGeometry x="30" width="150" height="30" as="geometry" />
        </mxCell>
        <mxCell id="kOpIBNxoIXO7Sk8ZDuLD-23" value="" style="shape=partialRectangle;collapsible=0;dropTarget=0;pointerEvents=0;fillColor=none;top=0;left=0;bottom=0;right=0;points=[[0,0.5],[1,0.5]];portConstraint=eastwest;" vertex="1" parent="kOpIBNxoIXO7Sk8ZDuLD-19">
          <mxGeometry y="60" width="180" height="30" as="geometry" />
        </mxCell>
        <mxCell id="kOpIBNxoIXO7Sk8ZDuLD-24" value="" style="shape=partialRectangle;connectable=0;fillColor=none;top=0;left=0;bottom=0;right=0;editable=1;overflow=hidden;" vertex="1" parent="kOpIBNxoIXO7Sk8ZDuLD-23">
          <mxGeometry width="30" height="30" as="geometry" />
        </mxCell>
        <mxCell id="kOpIBNxoIXO7Sk8ZDuLD-25" value="Name" style="shape=partialRectangle;connectable=0;fillColor=none;top=0;left=0;bottom=0;right=0;align=left;spacingLeft=6;overflow=hidden;" vertex="1" parent="kOpIBNxoIXO7Sk8ZDuLD-23">
          <mxGeometry x="30" width="150" height="30" as="geometry" />
        </mxCell>
        <mxCell id="kOpIBNxoIXO7Sk8ZDuLD-26" value="" style="shape=partialRectangle;collapsible=0;dropTarget=0;pointerEvents=0;fillColor=none;top=0;left=0;bottom=0;right=0;points=[[0,0.5],[1,0.5]];portConstraint=eastwest;" vertex="1" parent="kOpIBNxoIXO7Sk8ZDuLD-19">
          <mxGeometry y="90" width="180" height="30" as="geometry" />
        </mxCell>
        <mxCell id="kOpIBNxoIXO7Sk8ZDuLD-27" value="" style="shape=partialRectangle;connectable=0;fillColor=none;top=0;left=0;bottom=0;right=0;editable=1;overflow=hidden;" vertex="1" parent="kOpIBNxoIXO7Sk8ZDuLD-26">
          <mxGeometry width="30" height="30" as="geometry" />
        </mxCell>
        <mxCell id="kOpIBNxoIXO7Sk8ZDuLD-28" value="Row 2" style="shape=partialRectangle;connectable=0;fillColor=none;top=0;left=0;bottom=0;right=0;align=left;spacingLeft=6;overflow=hidden;" vertex="1" parent="kOpIBNxoIXO7Sk8ZDuLD-26">
          <mxGeometry x="30" width="150" height="30" as="geometry" />
        </mxCell>
        <mxCell id="kOpIBNxoIXO7Sk8ZDuLD-29" value="" style="shape=partialRectangle;collapsible=0;dropTarget=0;pointerEvents=0;fillColor=none;top=0;left=0;bottom=0;right=0;points=[[0,0.5],[1,0.5]];portConstraint=eastwest;" vertex="1" parent="kOpIBNxoIXO7Sk8ZDuLD-19">
          <mxGeometry y="120" width="180" height="30" as="geometry" />
        </mxCell>
        <mxCell id="kOpIBNxoIXO7Sk8ZDuLD-30" value="" style="shape=partialRectangle;connectable=0;fillColor=none;top=0;left=0;bottom=0;right=0;editable=1;overflow=hidden;" vertex="1" parent="kOpIBNxoIXO7Sk8ZDuLD-29">
          <mxGeometry width="30" height="30" as="geometry" />
        </mxCell>
        <mxCell id="kOpIBNxoIXO7Sk8ZDuLD-31" value="Row 3" style="shape=partialRectangle;connectable=0;fillColor=none;top=0;left=0;bottom=0;right=0;align=left;spacingLeft=6;overflow=hidden;" vertex="1" parent="kOpIBNxoIXO7Sk8ZDuLD-29">
          <mxGeometry x="30" width="150" height="30" as="geometry" />
        </mxCell>
        <mxCell id="kOpIBNxoIXO7Sk8ZDuLD-33" value="Table" style="shape=table;startSize=30;container=1;collapsible=1;childLayout=tableLayout;fixedRows=1;rowLines=0;fontStyle=1;align=center;resizeLast=1;" vertex="1" parent="1">
          <mxGeometry x="200" y="390" width="180" height="160" as="geometry" />
        </mxCell>
        <mxCell id="kOpIBNxoIXO7Sk8ZDuLD-34" value="" style="shape=partialRectangle;collapsible=0;dropTarget=0;pointerEvents=0;fillColor=none;top=0;left=0;bottom=0;right=0;points=[[0,0.5],[1,0.5]];portConstraint=eastwest;" vertex="1" parent="kOpIBNxoIXO7Sk8ZDuLD-33">
          <mxGeometry y="30" width="180" height="30" as="geometry" />
        </mxCell>
        <mxCell id="kOpIBNxoIXO7Sk8ZDuLD-35" value="PK,FK1" style="shape=partialRectangle;connectable=0;fillColor=none;top=0;left=0;bottom=0;right=0;fontStyle=1;overflow=hidden;" vertex="1" parent="kOpIBNxoIXO7Sk8ZDuLD-34">
          <mxGeometry width="60" height="30" as="geometry" />
        </mxCell>
        <mxCell id="kOpIBNxoIXO7Sk8ZDuLD-36" value="Row 1" style="shape=partialRectangle;connectable=0;fillColor=none;top=0;left=0;bottom=0;right=0;align=left;spacingLeft=6;fontStyle=5;overflow=hidden;" vertex="1" parent="kOpIBNxoIXO7Sk8ZDuLD-34">
          <mxGeometry x="60" width="120" height="30" as="geometry" />
        </mxCell>
        <mxCell id="kOpIBNxoIXO7Sk8ZDuLD-37" value="" style="shape=partialRectangle;collapsible=0;dropTarget=0;pointerEvents=0;fillColor=none;top=0;left=0;bottom=1;right=0;points=[[0,0.5],[1,0.5]];portConstraint=eastwest;" vertex="1" parent="kOpIBNxoIXO7Sk8ZDuLD-33">
          <mxGeometry y="60" width="180" height="30" as="geometry" />
        </mxCell>
        <mxCell id="kOpIBNxoIXO7Sk8ZDuLD-38" value="PK,FK2" style="shape=partialRectangle;connectable=0;fillColor=none;top=0;left=0;bottom=0;right=0;fontStyle=1;overflow=hidden;" vertex="1" parent="kOpIBNxoIXO7Sk8ZDuLD-37">
          <mxGeometry width="60" height="30" as="geometry" />
        </mxCell>
        <mxCell id="kOpIBNxoIXO7Sk8ZDuLD-39" value="Row 2" style="shape=partialRectangle;connectable=0;fillColor=none;top=0;left=0;bottom=0;right=0;align=left;spacingLeft=6;fontStyle=5;overflow=hidden;" vertex="1" parent="kOpIBNxoIXO7Sk8ZDuLD-37">
          <mxGeometry x="60" width="120" height="30" as="geometry" />
        </mxCell>
        <mxCell id="kOpIBNxoIXO7Sk8ZDuLD-40" value="" style="shape=partialRectangle;collapsible=0;dropTarget=0;pointerEvents=0;fillColor=none;top=0;left=0;bottom=0;right=0;points=[[0,0.5],[1,0.5]];portConstraint=eastwest;" vertex="1" parent="kOpIBNxoIXO7Sk8ZDuLD-33">
          <mxGeometry y="90" width="180" height="30" as="geometry" />
        </mxCell>
        <mxCell id="kOpIBNxoIXO7Sk8ZDuLD-41" value="" style="shape=partialRectangle;connectable=0;fillColor=none;top=0;left=0;bottom=0;right=0;editable=1;overflow=hidden;" vertex="1" parent="kOpIBNxoIXO7Sk8ZDuLD-40">
          <mxGeometry width="60" height="30" as="geometry" />
        </mxCell>
        <mxCell id="kOpIBNxoIXO7Sk8ZDuLD-42" value="Row 3" style="shape=partialRectangle;connectable=0;fillColor=none;top=0;left=0;bottom=0;right=0;align=left;spacingLeft=6;overflow=hidden;" vertex="1" parent="kOpIBNxoIXO7Sk8ZDuLD-40">
          <mxGeometry x="60" width="120" height="30" as="geometry" />
        </mxCell>
        <mxCell id="kOpIBNxoIXO7Sk8ZDuLD-43" value="" style="shape=partialRectangle;collapsible=0;dropTarget=0;pointerEvents=0;fillColor=none;top=0;left=0;bottom=0;right=0;points=[[0,0.5],[1,0.5]];portConstraint=eastwest;" vertex="1" parent="kOpIBNxoIXO7Sk8ZDuLD-33">
          <mxGeometry y="120" width="180" height="30" as="geometry" />
        </mxCell>
        <mxCell id="kOpIBNxoIXO7Sk8ZDuLD-44" value="" style="shape=partialRectangle;connectable=0;fillColor=none;top=0;left=0;bottom=0;right=0;editable=1;overflow=hidden;" vertex="1" parent="kOpIBNxoIXO7Sk8ZDuLD-43">
          <mxGeometry width="60" height="30" as="geometry" />
        </mxCell>
        <mxCell id="kOpIBNxoIXO7Sk8ZDuLD-45" value="Row 4" style="shape=partialRectangle;connectable=0;fillColor=none;top=0;left=0;bottom=0;right=0;align=left;spacingLeft=6;overflow=hidden;" vertex="1" parent="kOpIBNxoIXO7Sk8ZDuLD-43">
          <mxGeometry x="60" width="120" height="30" as="geometry" />
        </mxCell>
      </root>
    </mxGraphModel>
  </diagram>
</mxfile>
